{"asset":{"generator":"SOLIDWORKSGLTF","version":"2.0"},"extensionsUsed":["KHR_lights_punctual"],"scene":0,"scenes":[{"name":"Default<As Machined>","nodes":[0,1,2,3,4,5,6,7,8,9,10,11,12,13,14,15]}],"nodes":[{"matrix":[-0.39324729399079034,-0.19992434321110808,0.8974334642526587,0.0,0.00654176454417711,0.9754398869266923,0.22016864515432366,0.0,-0.9194094686730007,0.09245152234576239,-0.3822812380046679,0.0,-20.058039604447337,4.5391359297619704,-6.845009518805698,1.0],"camera":0,"name":"current camera"},{"matrix":[-1.0,0.0,0.0,0.0,0.0,1.0,0.0,0.0,-0.0,-0.0,-1.0,0.0,8.520071866295602,1.3877977278178495,-44.47430000848826,1.0],"camera":1,"name":"pergola front"},{"matrix":[1.0,0.0,0.0,0.0,0.0,1.0,0.0,0.0,0.0,0.0,1.0,0.0,5.415,1.9776860312700475,32.77915626629435,1.0],"camera":2,"name":"*Normal To"},{"matrix":[1.0,0.0,0.0,0.0,0.0,1.0,0.0,0.0,0.0,0.0,1.0,0.0,5.415,1.9776860312700475,32.77915626629435,1.0],"camera":3,"name":"*Front"},{"matrix":[-1.0,0.0,0.0,0.0,0.0,1.0,0.0,0.0,-0.0,-0.0,-1.0,0.0,5.4150000000002025,1.977686031270047,-25.286306413540675,1.0],"camera":4,"name":"*Back"},{"matrix":[3.4914813388431334e-15,-0.0,1.0,0.0,0.0,1.0,0.0,0.0,-1.0,-0.0,3.4914813388431334e-15,0.0,-17.02837357189796,1.9776860312700473,3.7464249263768123,1.0],"camera":5,"name":"*Left"},{"matrix":[3.4914813388431334e-15,0.0,-1.0,0.0,0.0,1.0,0.0,0.0,1.0,-0.0,3.4914813388431334e-15,0.0,27.858373571897957,1.9776860312700473,3.7464249263768123,1.0],"camera":6,"name":"*Right"},{"matrix":[1.0,0.0,-6.982962677686267e-15,0.0,-6.982962677686267e-15,6.123233995736766e-17,-1.0,0.0,4.275831445896959e-31,1.0,6.123233995736766e-17,0.0,5.415,31.010417371187508,3.746424926376893,1.0],"camera":7,"name":"*Top"},{"matrix":[1.0,0.0,-6.982962677686267e-15,0.0,6.982962677686267e-15,7.16665969755837e-15,1.0,0.0,5.004451719172844e-29,-1.0,7.16665969755837e-15,0.0,5.415,-27.055045308647415,3.746424926377099,1.0],"camera":8,"name":"*Bottom"},{"matrix":[0.7071067811865512,2.7755575615628914e-17,-0.7071067811865438,0.0,-0.40820405591135434,0.8165408118857479,-0.4082040559113586,0.0,0.5773815451999783,0.5772877120855455,0.5773815451999844,0.0,25.82083863626581,22.380208414344438,24.152263562642634,1.0],"camera":9,"name":"*Isometric"},{"matrix":[0.8844181216774244,-9.819013620820098e-17,-0.46669538893005613,0.0,-0.24036589468391958,0.8571673007021322,-0.45550900680427747,0.0,0.400036026779308,0.5150380749100211,0.7580942940502878,0.0,18.90682649379824,19.348132389140936,29.314313807813576,1.0],"camera":10,"name":"*Trimetric"},{"matrix":[0.9354143467241438,1.3877787807814457e-17,-0.3535533905121595,0.0,-0.1178511301426804,0.9428090416101028,-0.3118047821671958,0.0,0.33333333326677156,0.33333333325402575,0.8819171037433304,0.0,16.44732476261524,13.010010793463234,32.93521263880921,1.0],"camera":11,"name":"*Dimetric"},{"rotation":[-0.05073662847280502,0.5776829123497009,0.8146803975105286,-0.0020322140771895647],"scale":[-8.302929859590528e-35,0.0,0.0],"translation":[1.0,0.0,0.0],"extensions":{"KHR_lights_punctual":{"light":0}},"name":"Directional"},{"rotation":[0.0681726336479187,-0.4423387050628662,0.8885892033576965,0.10048962384462357],"scale":[-8.302929859590528e-35,0.0,0.0],"translation":[1.0,0.0,0.0],"extensions":{"KHR_lights_punctual":{"light":1}},"name":"Directional"},{"rotation":[0.09288898855447769,-0.8826028108596802,0.4605785012245178,0.01585267297923565],"scale":[-8.302929859590528e-35,0.0,0.0],"translation":[1.0,0.0,0.0],"extensions":{"KHR_lights_punctual":{"light":2}},"name":"Directional"},{"mesh":0,"name":"Pergola_Concept_A_BH_WAVE_5_EDITABLE_EDITED_LATHS_SUNTUF_FINAL"}],"cameras":[{"type":"orthographic","orthographic":{"xmag":6.255398694908531,"ymag":4.83371717333841,"zfar":41.51772336830698,"znear":20.79994394987984}},{"type":"orthographic","orthographic":{"xmag":7.596519120089953,"ymag":7.596519120089953,"zfar":62.03257788048324,"znear":41.314798462056096}},{"type":"orthographic","orthographic":{"xmag":8.63240809101131,"ymag":8.63240809101131,"zfar":42.844584285535554,"znear":22.12680486710841}},{"type":"orthographic","orthographic":{"xmag":8.63240809101131,"ymag":8.63240809101131,"zfar":42.844584285535554,"znear":22.12680486710841}},{"type":"orthographic","orthographic":{"xmag":8.63240809101131,"ymag":8.63240809101131,"zfar":42.84458428553566,"znear":22.12680486710852}},{"type":"orthographic","orthographic":{"xmag":8.63240809101131,"ymag":8.63240809101131,"zfar":36.25522651751605,"znear":15.53744709908891}},{"type":"orthographic","orthographic":{"xmag":8.63240809101131,"ymag":8.63240809101131,"zfar":36.25522651751605,"znear":15.53744709908891}},{"type":"orthographic","orthographic":{"xmag":8.63240809101131,"ymag":8.63240809101131,"zfar":42.844584285535554,"znear":22.12680486710841}},{"type":"orthographic","orthographic":{"xmag":8.63240809101131,"ymag":8.63240809101131,"zfar":42.844584285535554,"znear":22.12680486710841}},{"type":"orthographic","orthographic":{"xmag":8.63240809101131,"ymag":8.63240809101131,"zfar":49.15388769873447,"znear":28.43610828030733}},{"type":"orthographic","orthographic":{"xmag":8.63240809101131,"ymag":8.63240809101131,"zfar":47.5383815346075,"znear":26.82060211618036}},{"type":"orthographic","orthographic":{"xmag":8.63240809101131,"ymag":8.63240809101131,"zfar":46.90882724007218,"znear":26.191047821645036}}],"extensions":{"KHR_lights_punctual":{"lights":[{"color":[1.0,1.0,1.0],"name":"Directional-1","intensity":0.3,"type":"directional"},{"color":[1.0,1.0,1.0],"name":"Directional-1","intensity":0.1,"type":"directional"},{"color":[1.0,1.0,1.0],"name":"Directional-1","intensity":0.2,"type":"directional"}]}},"meshes":[{"primitives":[{"attributes":{"POSITION":1,"NORMAL":2},"indices":0,"material":0,"mode":4},{"attributes":{"POSITION":4,"NORMAL":5},"indices":3,"material":1,"mode":4},{"attributes":{"POSITION":7,"NORMAL":8},"indices":6,"material":2,"mode":4},{"attributes":{"POSITION":10,"NORMAL":11},"indices":9,"material":3,"mode":4},{"attributes":{"POSITION":13,"NORMAL":14},"indices":12,"material":4,"mode":4},{"attributes":{"POSITION":16,"NORMAL":17},"indices":15,"material":5,"mode":4},{"attributes":{"POSITION":19,"NORMAL":20,"TEXCOORD_0":21},"indices":18,"material":6,"mode":4},{"attributes":{"POSITION":23,"NORMAL":24,"TEXCOORD_0":25},"indices":27,"material":7,"mode":4},{"attributes":{"POSITION":23,"NORMAL":24,"TEXCOORD_0":25},"indices":26,"material":8,"mode":4}]}],"accessors":[{"bufferView":0,"byteOffset":0,"componentType":5125,"count":216,"type":"SCALAR","min":[0],"max":[143]},{"bufferView":1,"byteOffset":0,"componentType":5126,"count":144,"type":"VEC3","min":[0.0,2.785559892654419,3.81571888923645],"max":[10.829999923706055,2.9311304092407227,5.343657493591309]},{"bufferView":2,"byteOffset":0,"componentType":5126,"count":144,"type":"VEC3","min":[-1.0,-1.0,-1.0],"max":[1.0,1.0,1.0]},{"bufferView":0,"byteOffset":864,"componentType":5125,"count":72,"type":"SCALAR","min":[0],"max":[47]},{"bufferView":1,"byteOffset":1728,"componentType":5126,"count":48,"type":"VEC3","min":[10.329999923706055,2.619999885559082,0.42500001192092896],"max":[10.34000015258789,3.1705000400543213,3.75]},{"bufferView":2,"byteOffset":1728,"componentType":5126,"count":48,"type":"VEC3","min":[-1.0,-1.0,-1.0],"max":[1.0,1.0,1.0]},{"bufferView":0,"byteOffset":1152,"componentType":5125,"count":72,"type":"SCALAR","min":[0],"max":[47]},{"bufferView":1,"byteOffset":2304,"componentType":5126,"count":48,"type":"VEC3","min":[-1.7763568394002505e-15,2.677621364593506,3.9157190322875977],"max":[10.829999923706055,3.9553720951080322,7.548839092254639]},{"bufferView":2,"byteOffset":2304,"componentType":5126,"count":48,"type":"VEC3","min":[-1.0,-0.9396926164627075,-0.9396926164627075],"max":[1.0,0.9396926164627075,0.9396926164627075]},{"bufferView":0,"byteOffset":1440,"componentType":5125,"count":234,"type":"SCALAR","min":[0],"max":[133]},{"bufferView":1,"byteOffset":2880,"componentType":5126,"count":134,"type":"VEC3","min":[0.0,0.20000000298023224,0.0],"max":[10.630000114440918,3.5999999046325684,5.80815315246582]},{"bufferView":2,"byteOffset":2880,"componentType":5126,"count":134,"type":"VEC3","min":[-1.0,-1.0,-1.0],"max":[1.0,1.0,1.0]},{"bufferView":0,"byteOffset":2376,"componentType":5125,"count":20604,"type":"SCALAR","min":[0],"max":[10433]},{"bufferView":1,"byteOffset":4488,"componentType":5126,"count":10434,"type":"VEC3","min":[0.968999981880188,3.142946481704712,-0.0502515472471714],"max":[10.329999923706055,3.5111441612243652,5.695161819458008]},{"bufferView":2,"byteOffset":4488,"componentType":5126,"count":10434,"type":"VEC3","min":[-1.0,-0.9980868697166443,-0.9982048273086548],"max":[1.0,0.9980868697166443,0.9982048273086548]},{"bufferView":0,"byteOffset":84792,"componentType":5125,"count":1980,"type":"SCALAR","min":[0],"max":[995]},{"bufferView":1,"byteOffset":129696,"componentType":5126,"count":996,"type":"VEC3","min":[-3.4512664603419266e-31,3.142946481704712,-0.05008384957909584],"max":[1.0449999570846558,3.5083491802215576,5.695161819458008]},{"bufferView":2,"byteOffset":129696,"componentType":5126,"count":996,"type":"VEC3","min":[-1.0,-0.9618626236915588,-0.9982048273086548],"max":[1.0,0.9618626236915588,0.9982048273086548]},{"bufferView":0,"byteOffset":92712,"componentType":5125,"count":36,"type":"SCALAR","min":[0],"max":[23]},{"bufferView":1,"byteOffset":141648,"componentType":5126,"count":24,"type":"VEC3","min":[0.0,0.0,0.0],"max":[10.630000114440918,0.20000000298023224,6.0]},{"bufferView":2,"byteOffset":141648,"componentType":5126,"count":24,"type":"VEC3","min":[-1.0,-1.0,-1.0],"max":[1.0,1.0,1.0]},{"bufferView":3,"byteOffset":0,"componentType":5126,"count":24,"type":"VEC2","min":[-3.0433332920074463,0.4650000035762787],"max":[4.043333530426025,2.5]},{"bufferView":0,"byteOffset":92856,"componentType":5125,"count":5466,"type":"SCALAR","min":[0],"max":[3563]},{"bufferView":1,"byteOffset":141936,"componentType":5126,"count":3564,"type":"VEC3","min":[-1.7763568394002505e-14,0.20000000298023224,-0.05598922818899155],"max":[10.329999923706055,3.482435464859009,5.80815315246582]},{"bufferView":2,"byteOffset":141936,"componentType":5126,"count":3564,"type":"VEC3","min":[-1.0,-1.0,-1.0],"max":[1.0,1.0,1.0]},{"bufferView":3,"byteOffset":192,"componentType":5126,"count":3564,"type":"VEC2","min":[-12.262652397155762,-4.017632484436035],"max":[3.7465832233428955,3.8734781742095947]},{"bufferView":4,"componentType":5125,"count":3384,"type":"SCALAR","min":[1308],"max":[3563]},{"bufferView":5,"componentType":5125,"count":2082,"type":"SCALAR","min":[0],"max":[1307]}],"materials":[{"name":"Dark_Details_A","pbrMetallicRoughness":{"baseColorFactor":[0.022012996122073566,0.028991187497512977,0.03847274682033952,1.0],"metallicFactor":0.0,"roughnessFactor":0.17999999970197678}},{"name":"Dark_Details_B","pbrMetallicRoughness":{"baseColorFactor":[0.0461488424943927,0.05459228354562063,0.06972709063840661,1.0],"metallicFactor":0.0,"roughnessFactor":0.17999999970197678}},{"name":"Brick","pbrMetallicRoughness":{"baseColorFactor":[0.5731588967040465,0.23489528791762052,0.1701383758653195,1.0],"metallicFactor":0.0,"roughnessFactor":0.99}},{"name":"Earthenware","pbrMetallicRoughness":{"baseColorFactor":[1.0,0.5417983787732485,0.2844520903123097,1.0],"metallicFactor":0.0,"roughnessFactor":0.9300000071525574}},{"alphaMode":"BLEND","name":"Suntuf_A","pbrMetallicRoughness":{"baseColorFactor":[0.6455552910764322,0.8671355451331338,1.0,0.3299490809440613],"metallicFactor":0.0,"roughnessFactor":0.17999999970197678}},{"alphaMode":"BLEND","name":"Suntuf_B","pbrMetallicRoughness":{"baseColorFactor":[0.6455552910764322,0.8671355451331338,1.0,0.3299490809440613],"metallicFactor":0.0,"roughnessFactor":0.17999999970197678}},{"name":"Paving","pbrMetallicRoughness":{"baseColorTexture":{"index":0},"baseColorFactor":[1.0,1.0,1.0,1.0],"metallicFactor":0.0,"roughnessFactor":0.99}},{"name":"Wood_Structure","pbrMetallicRoughness":{"baseColorTexture":{"index":1},"baseColorFactor":[1.0,1.0,1.0,1.0],"metallicFactor":0.0,"roughnessFactor":0.1899999998509884}},{"name":"Wood_Laths","pbrMetallicRoughness":{"baseColorTexture":{"index":1},"baseColorFactor":[1.0,1.0,1.0,1.0],"metallicFactor":0.0,"roughnessFactor":0.1899999998509884}}],"textures":[{"sampler":0,"source":0},{"sampler":1,"source":1}],"images":[{"uri":"paving stone.jpg"},{"uri":"polished pine.jpg"}],"samplers":[{"magFilter":9729,"minFilter":9729,"wrapS":10497,"wrapT":10497},{"magFilter":9729,"minFilter":9729,"wrapS":10497,"wrapT":10497}],"bufferViews":[{"buffer":0,"byteOffset":0,"byteLength":114720,"target":34963},{"buffer":0,"byteOffset":114720,"byteLength":184704,"byteStride":12,"target":34962},{"buffer":0,"byteOffset":299424,"byteLength":184704,"byteStride":12,"target":34962},{"buffer":0,"byteOffset":484128,"byteLength":28704,"byteStride":8,"target":34962},{"buffer":0,"byteOffset":512832,"byteLength":13536,"target":34963},{"buffer":0,"byteOffset":526368,"byteLength":8328,"target":34963}],"buffers":[{"uri":"Pergola_layers.bin","byteLength":534696}]}